<mxfile host="app.diagrams.net" modified="2024-06-19T14:51:29.087Z" agent="Mozilla/5.0 (X11; Linux x86_64) AppleWebKit/537.36 (KHTML, like Gecko) Chrome/126.0.0.0 Safari/537.36" version="24.5.5" etag="rbi_wMboNp9ud0QVIZ2r" type="github">
  <diagram name="Page-1" id="KHDwBbZ4Z2FN4VUBFYXX">
    <mxGraphModel>
      <root>
        <mxCell id="0" />
        <mxCell id="1" parent="0" />
      </root>
    </mxGraphModel>
  </diagram>
</mxfile>
